<?xml version="1.0" encoding="UTF-8" standalone="no"?>
<!-- Created with Inkscape (http://www.inkscape.org/) -->

<svg
   xmlns:dc="http://purl.org/dc/elements/1.1/"
   xmlns:cc="http://creativecommons.org/ns#"
   xmlns:rdf="http://www.w3.org/1999/02/22-rdf-syntax-ns#"
   xmlns:svg="http://www.w3.org/2000/svg"
   xmlns="http://www.w3.org/2000/svg"
   xmlns:sodipodi="http://sodipodi.sourceforge.net/DTD/sodipodi-0.dtd"
   xmlns:inkscape="http://www.inkscape.org/namespaces/inkscape"
   width="744.09448819"
   height="1052.3622047"
   id="svg2"
   version="1.1"
   inkscape:version="0.48.4 r9939"
   sodipodi:docname="drawing.svg">
  <defs
     id="defs4" />
  <sodipodi:namedview
     id="base"
     pagecolor="#ffffff"
     bordercolor="#666666"
     borderopacity="1.0"
     inkscape:pageopacity="0.0"
     inkscape:pageshadow="2"
     inkscape:zoom="0.7"
     inkscape:cx="-573.52181"
     inkscape:cy="976.02354"
     inkscape:document-units="px"
     inkscape:current-layer="layer1"
     showgrid="false"
     inkscape:window-width="1065"
     inkscape:window-height="805"
     inkscape:window-x="214"
     inkscape:window-y="156"
     inkscape:window-maximized="0" />
  <metadata
     id="metadata7">
    <rdf:RDF>
      <cc:Work
         rdf:about="">
        <dc:format>image/svg+xml</dc:format>
        <dc:type
           rdf:resource="http://purl.org/dc/dcmitype/StillImage" />
        <dc:title></dc:title>
      </cc:Work>
    </rdf:RDF>
  </metadata>
  <g
     inkscape:label="Layer 1"
     inkscape:groupmode="layer"
     id="layer1">
    <path
       style="fill:#ff0000;fill-opacity:1;stroke:#ff0000;stroke-opacity:1"
       d="M 299.28125 190.9375 C 210.5212 190.9375 138.5625 262.8962 138.5625 351.65625 C 138.5625 440.4163 210.5212 512.375 299.28125 512.375 C 388.0413 512.375 460 440.4163 460 351.65625 C 460 262.8962 388.0413 190.9375 299.28125 190.9375 z M 299.28125 225.875 C 368.73557 225.875 425.03125 282.20193 425.03125 351.65625 C 425.03125 421.11057 368.73557 477.40625 299.28125 477.40625 C 229.82693 477.40625 173.53125 421.11057 173.53125 351.65625 C 173.53125 282.20193 229.82693 225.875 299.28125 225.875 z "
       id="path3801" />
    <g
       id="g3835"
       transform="matrix(0.06474352,0,0,0.06474352,1.2306657,-296.35242)"
       inkscape:export-filename="/home/vikash/Documents/GitHub/21PercentO2/icon16.png"
       inkscape:export-xdpi="90"
       inkscape:export-ydpi="90">
      <rect
         y="-62.988026"
         x="-438.59402"
         height="247.12897"
         width="247.12897"
         id="rect3833"
         style="fill:#ffffff;fill-opacity:1;stroke:none" />
      <g
         transform="translate(-169.37438,-53.928597)"
         inkscape:export-ydpi="90"
         inkscape:export-xdpi="90"
         inkscape:export-filename="/home/vikash/Desktop/asdf.png"
         id="g3827">
        <path
           sodipodi:type="arc"
           style="fill:#ffffff;fill-opacity:1;stroke:#ff0000;stroke-width:10;stroke-miterlimit:4;stroke-opacity:1;stroke-dasharray:none"
           id="path3821"
           sodipodi:cx="-79.285713"
           sodipodi:cy="395.93362"
           sodipodi:rx="130.71428"
           sodipodi:ry="130.71428"
           d="m 51.428566,395.93362 c 0,72.19151 -58.5227762,130.71428 -130.714279,130.71428 -72.191507,0 -130.714277,-58.52277 -130.714277,-130.71428 0,-72.1915 58.52277,-130.71427 130.714277,-130.71427 72.1915028,0 130.714279,58.52277 130.714279,130.71427 z"
           transform="matrix(0.79999999,0,0,0.79999999,-91.571429,-202.24184)" />
        <path
           style="fill:#ff0000;fill-opacity:1;stroke:#ff0000;stroke-width:0.51542455;stroke-opacity:1"
           d="m -154.99194,22.831964 c -32.52177,0 -61.08861,16.94156 -77.36201,42.4742 5.75849,-2.28051 11.15874,-4.01642 16.18756,-5.20257 5.231,-1.23362 10.00856,-1.85219 14.35135,-1.8523 11.44902,1.1e-4 20.58775,2.86061 27.39804,8.58504 6.81014,5.72463 10.21176,13.37879 10.21184,22.9525 -8e-5,4.54022 -0.86608,8.85411 -2.59323,12.950046 -1.67795,4.04672 -4.75469,8.84038 -9.24542,14.36746 -1.2338,1.43118 -5.16147,5.57509 -11.77423,12.43462 -6.61288,6.81026 -15.93666,16.35028 -27.97789,28.63827 l 52.18673,0 0,12.59569 -63.76768,0 c 16.77379,21.54821 42.9626,35.40323 72.38494,35.40323 29.42234,0 55.595025,-13.85502 72.368827,-35.40323 l -46.935847,0 0,-12.59569 24.43434,0 0,-84.304136 -26.57658,5.33143 0,-13.62654 26.41551,-5.33142 14.963417,0 0,97.930666 15.94595,0 c 7.04558,-12.98185 11.04941,-27.85734 11.04941,-43.66612 0,-50.629026 -41.036017,-91.681146 -91.665027,-91.681146 z m -78.05461,43.58559 c -8.63504,13.98255 -13.62653,30.45469 -13.62653,48.095556 0,17.13476 4.7029,33.16816 12.88561,46.88753 l 0,-3.22141 c 5.67517,-5.87256 13.40678,-13.74296 23.178,-23.61288 9.8205,-9.9192 15.99009,-16.30503 18.50696,-19.16735 4.78684,-5.37904 8.11101,-9.92527 9.98635,-13.62654 1.92457,-3.750496 2.88309,-7.430726 2.88316,-11.033316 -7e-5,-5.8725 -2.07202,-10.65005 -6.21731,-14.35135 -4.09606,-3.70112 -9.44592,-5.55682 -16.0587,-5.55692 -4.68824,1e-4 -9.65187,0.81983 -14.88288,2.44826 -5.18172,1.62863 -10.73274,4.08681 -16.65466,7.39313 l 0,-14.25471 z"
           id="path3818"
           inkscape:connector-curvature="0" />
        <text
           xml:space="preserve"
           style="font-size:118.91728973px;font-style:normal;font-weight:normal;line-height:125%;letter-spacing:0px;word-spacing:0px;fill:#000000;fill-opacity:1;stroke:none;font-family:Sans"
           x="-91.49437"
           y="222.36218"
           id="text3823"
           sodipodi:linespacing="125%"><tspan
             sodipodi:role="line"
             id="tspan3825"
             x="-91.49437"
             y="222.36218">2</tspan></text>
      </g>
    </g>
    <g
       id="g3843"
       transform="matrix(0.19423057,0,0,0.19423057,122.30862,-307.33914)"
       inkscape:export-filename="/home/vikash/Documents/GitHub/21PercentO2/icon48.png"
       inkscape:export-xdpi="90"
       inkscape:export-ydpi="90">
      <rect
         style="fill:#ffffff;fill-opacity:1;stroke:none"
         id="rect3845"
         width="247.12897"
         height="247.12897"
         x="-438.59402"
         y="-62.988026" />
      <g
         id="g3847"
         inkscape:export-filename="/home/vikash/Desktop/asdf.png"
         inkscape:export-xdpi="90"
         inkscape:export-ydpi="90"
         transform="translate(-169.37438,-53.928597)">
        <path
           transform="matrix(0.79999999,0,0,0.79999999,-91.571429,-202.24184)"
           d="m 51.428566,395.93362 c 0,72.19151 -58.5227762,130.71428 -130.714279,130.71428 -72.191507,0 -130.714277,-58.52277 -130.714277,-130.71428 0,-72.1915 58.52277,-130.71427 130.714277,-130.71427 72.1915028,0 130.714279,58.52277 130.714279,130.71427 z"
           sodipodi:ry="130.71428"
           sodipodi:rx="130.71428"
           sodipodi:cy="395.93362"
           sodipodi:cx="-79.285713"
           id="path3849"
           style="fill:#ffffff;fill-opacity:1;stroke:#ff0000;stroke-width:10;stroke-miterlimit:4;stroke-opacity:1;stroke-dasharray:none"
           sodipodi:type="arc" />
        <path
           inkscape:connector-curvature="0"
           id="path3851"
           d="m -154.99194,22.831964 c -32.52177,0 -61.08861,16.94156 -77.36201,42.4742 5.75849,-2.28051 11.15874,-4.01642 16.18756,-5.20257 5.231,-1.23362 10.00856,-1.85219 14.35135,-1.8523 11.44902,1.1e-4 20.58775,2.86061 27.39804,8.58504 6.81014,5.72463 10.21176,13.37879 10.21184,22.9525 -8e-5,4.54022 -0.86608,8.85411 -2.59323,12.950046 -1.67795,4.04672 -4.75469,8.84038 -9.24542,14.36746 -1.2338,1.43118 -5.16147,5.57509 -11.77423,12.43462 -6.61288,6.81026 -15.93666,16.35028 -27.97789,28.63827 l 52.18673,0 0,12.59569 -63.76768,0 c 16.77379,21.54821 42.9626,35.40323 72.38494,35.40323 29.42234,0 55.595025,-13.85502 72.368827,-35.40323 l -46.935847,0 0,-12.59569 24.43434,0 0,-84.304136 -26.57658,5.33143 0,-13.62654 26.41551,-5.33142 14.963417,0 0,97.930666 15.94595,0 c 7.04558,-12.98185 11.04941,-27.85734 11.04941,-43.66612 0,-50.629026 -41.036017,-91.681146 -91.665027,-91.681146 z m -78.05461,43.58559 c -8.63504,13.98255 -13.62653,30.45469 -13.62653,48.095556 0,17.13476 4.7029,33.16816 12.88561,46.88753 l 0,-3.22141 c 5.67517,-5.87256 13.40678,-13.74296 23.178,-23.61288 9.8205,-9.9192 15.99009,-16.30503 18.50696,-19.16735 4.78684,-5.37904 8.11101,-9.92527 9.98635,-13.62654 1.92457,-3.750496 2.88309,-7.430726 2.88316,-11.033316 -7e-5,-5.8725 -2.07202,-10.65005 -6.21731,-14.35135 -4.09606,-3.70112 -9.44592,-5.55682 -16.0587,-5.55692 -4.68824,1e-4 -9.65187,0.81983 -14.88288,2.44826 -5.18172,1.62863 -10.73274,4.08681 -16.65466,7.39313 l 0,-14.25471 z"
           style="fill:#ff0000;fill-opacity:1;stroke:#ff0000;stroke-width:0.51542455;stroke-opacity:1" />
        <text
           sodipodi:linespacing="125%"
           id="text3853"
           y="222.36218"
           x="-91.49437"
           style="font-size:118.91728973px;font-style:normal;font-weight:normal;line-height:125%;letter-spacing:0px;word-spacing:0px;fill:#000000;fill-opacity:1;stroke:none;font-family:Sans"
           xml:space="preserve"><tspan
             y="222.36218"
             x="-91.49437"
             id="tspan3855"
             sodipodi:role="line">2</tspan></text>
      </g>
    </g>
    <g
       id="g3861"
       inkscape:export-filename="/home/vikash/Desktop/asdf.png"
       inkscape:export-xdpi="90"
       inkscape:export-ydpi="90"
       transform="matrix(0.51794818,0,0,0.51794818,113.70494,-230.59531)">
      <path
         transform="matrix(0.79999999,0,0,0.79999999,-91.571429,-202.24184)"
         d="m 51.428566,395.93362 c 0,72.19151 -58.5227762,130.71428 -130.714279,130.71428 -72.191507,0 -130.714277,-58.52277 -130.714277,-130.71428 0,-72.1915 58.52277,-130.71427 130.714277,-130.71427 72.1915028,0 130.714279,58.52277 130.714279,130.71427 z"
         sodipodi:ry="130.71428"
         sodipodi:rx="130.71428"
         sodipodi:cy="395.93362"
         sodipodi:cx="-79.285713"
         id="path3863"
         style="fill:#ffffff;fill-opacity:1;stroke:#ff0000;stroke-width:10;stroke-miterlimit:4;stroke-opacity:1;stroke-dasharray:none"
         sodipodi:type="arc" />
      <path
         inkscape:connector-curvature="0"
         id="path3865"
         d="m -154.99194,22.831964 c -32.52177,0 -61.08861,16.94156 -77.36201,42.4742 5.75849,-2.28051 11.15874,-4.01642 16.18756,-5.20257 5.231,-1.23362 10.00856,-1.85219 14.35135,-1.8523 11.44902,1.1e-4 20.58775,2.86061 27.39804,8.58504 6.81014,5.72463 10.21176,13.37879 10.21184,22.9525 -8e-5,4.54022 -0.86608,8.85411 -2.59323,12.950046 -1.67795,4.04672 -4.75469,8.84038 -9.24542,14.36746 -1.2338,1.43118 -5.16147,5.57509 -11.77423,12.43462 -6.61288,6.81026 -15.93666,16.35028 -27.97789,28.63827 l 52.18673,0 0,12.59569 -63.76768,0 c 16.77379,21.54821 42.9626,35.40323 72.38494,35.40323 29.42234,0 55.595025,-13.85502 72.368827,-35.40323 l -46.935847,0 0,-12.59569 24.43434,0 0,-84.304136 -26.57658,5.33143 0,-13.62654 26.41551,-5.33142 14.963417,0 0,97.930666 15.94595,0 c 7.04558,-12.98185 11.04941,-27.85734 11.04941,-43.66612 0,-50.629026 -41.036017,-91.681146 -91.665027,-91.681146 z m -78.05461,43.58559 c -8.63504,13.98255 -13.62653,30.45469 -13.62653,48.095556 0,17.13476 4.7029,33.16816 12.88561,46.88753 l 0,-3.22141 c 5.67517,-5.87256 13.40678,-13.74296 23.178,-23.61288 9.8205,-9.9192 15.99009,-16.30503 18.50696,-19.16735 4.78684,-5.37904 8.11101,-9.92527 9.98635,-13.62654 1.92457,-3.750496 2.88309,-7.430726 2.88316,-11.033316 -7e-5,-5.8725 -2.07202,-10.65005 -6.21731,-14.35135 -4.09606,-3.70112 -9.44592,-5.55682 -16.0587,-5.55692 -4.68824,1e-4 -9.65187,0.81983 -14.88288,2.44826 -5.18172,1.62863 -10.73274,4.08681 -16.65466,7.39313 l 0,-14.25471 z"
         style="fill:#ff0000;fill-opacity:1;stroke:#ff0000;stroke-width:0.51542455;stroke-opacity:1" />
      <text
         sodipodi:linespacing="125%"
         id="text3867"
         y="222.36218"
         x="-91.49437"
         style="font-size:118.91728973px;font-style:normal;font-weight:normal;line-height:125%;letter-spacing:0px;word-spacing:0px;fill:#000000;fill-opacity:1;stroke:none;font-family:Sans"
         xml:space="preserve"><tspan
           y="222.36218"
           x="-91.49437"
           id="tspan3869"
           sodipodi:role="line">2</tspan></text>
    </g>
    <g
       id="g3871"
       transform="translate(151.42857,-280)">
      <rect
         style="fill:#ffffff;fill-opacity:1;stroke:none"
         id="rect3873"
         width="247.12897"
         height="247.12897"
         x="-438.59402"
         y="-62.988026" />
      <g
         id="g3875"
         inkscape:export-filename="/home/vikash/Desktop/asdf.png"
         inkscape:export-xdpi="90"
         inkscape:export-ydpi="90"
         transform="translate(-169.37438,-53.928597)">
        <path
           transform="matrix(0.79999999,0,0,0.79999999,-91.571429,-202.24184)"
           d="m 51.428566,395.93362 c 0,72.19151 -58.5227762,130.71428 -130.714279,130.71428 -72.191507,0 -130.714277,-58.52277 -130.714277,-130.71428 0,-72.1915 58.52277,-130.71427 130.714277,-130.71427 72.1915028,0 130.714279,58.52277 130.714279,130.71427 z"
           sodipodi:ry="130.71428"
           sodipodi:rx="130.71428"
           sodipodi:cy="395.93362"
           sodipodi:cx="-79.285713"
           id="path3877"
           style="fill:#ffffff;fill-opacity:1;stroke:#ff0000;stroke-width:10;stroke-miterlimit:4;stroke-opacity:1;stroke-dasharray:none"
           sodipodi:type="arc" />
        <path
           inkscape:connector-curvature="0"
           id="path3879"
           d="m -154.99194,22.831964 c -32.52177,0 -61.08861,16.94156 -77.36201,42.4742 5.75849,-2.28051 11.15874,-4.01642 16.18756,-5.20257 5.231,-1.23362 10.00856,-1.85219 14.35135,-1.8523 11.44902,1.1e-4 20.58775,2.86061 27.39804,8.58504 6.81014,5.72463 10.21176,13.37879 10.21184,22.9525 -8e-5,4.54022 -0.86608,8.85411 -2.59323,12.950046 -1.67795,4.04672 -4.75469,8.84038 -9.24542,14.36746 -1.2338,1.43118 -5.16147,5.57509 -11.77423,12.43462 -6.61288,6.81026 -15.93666,16.35028 -27.97789,28.63827 l 52.18673,0 0,12.59569 -63.76768,0 c 16.77379,21.54821 42.9626,35.40323 72.38494,35.40323 29.42234,0 55.595025,-13.85502 72.368827,-35.40323 l -46.935847,0 0,-12.59569 24.43434,0 0,-84.304136 -26.57658,5.33143 0,-13.62654 26.41551,-5.33142 14.963417,0 0,97.930666 15.94595,0 c 7.04558,-12.98185 11.04941,-27.85734 11.04941,-43.66612 0,-50.629026 -41.036017,-91.681146 -91.665027,-91.681146 z m -78.05461,43.58559 c -8.63504,13.98255 -13.62653,30.45469 -13.62653,48.095556 0,17.13476 4.7029,33.16816 12.88561,46.88753 l 0,-3.22141 c 5.67517,-5.87256 13.40678,-13.74296 23.178,-23.61288 9.8205,-9.9192 15.99009,-16.30503 18.50696,-19.16735 4.78684,-5.37904 8.11101,-9.92527 9.98635,-13.62654 1.92457,-3.750496 2.88309,-7.430726 2.88316,-11.033316 -7e-5,-5.8725 -2.07202,-10.65005 -6.21731,-14.35135 -4.09606,-3.70112 -9.44592,-5.55682 -16.0587,-5.55692 -4.68824,1e-4 -9.65187,0.81983 -14.88288,2.44826 -5.18172,1.62863 -10.73274,4.08681 -16.65466,7.39313 l 0,-14.25471 z"
           style="fill:#ff0000;fill-opacity:1;stroke:#ff0000;stroke-width:0.51542455;stroke-opacity:1" />
        <text
           sodipodi:linespacing="125%"
           id="text3881"
           y="222.36218"
           x="-91.49437"
           style="font-size:118.91728973px;font-style:normal;font-weight:normal;line-height:125%;letter-spacing:0px;word-spacing:0px;fill:#000000;fill-opacity:1;stroke:none;font-family:Sans"
           xml:space="preserve"><tspan
             y="222.36218"
             x="-91.49437"
             id="tspan3883"
             sodipodi:role="line">2</tspan></text>
      </g>
    </g>
    <g
       id="g3817"
       inkscape:export-filename="/home/vikash/Documents/GitHub/21PercentO2/icon128.png"
       inkscape:export-xdpi="35.978718"
       inkscape:export-ydpi="35.978718">
      <g
         transform="translate(189.28572,190.71426)"
         id="g3808">
        <g
           id="g3800"
           transform="translate(-68.571429,-17.142857)">
          <path
             transform="translate(10,7.1428571)"
             d="m -557.14284,-149.78067 c 0,80.870268 -65.5583,146.4285734 -146.42857,146.4285734 -80.87027,0 -146.42857,-65.5583054 -146.42857,-146.4285734 0,-80.87027 65.5583,-146.42857 146.42857,-146.42857 80.87027,0 146.42857,65.5583 146.42857,146.42857 z"
             sodipodi:ry="146.42857"
             sodipodi:rx="146.42857"
             sodipodi:cy="-149.78067"
             sodipodi:cx="-703.57141"
             id="path3030"
             style="fill:#ffffff;fill-opacity:1;stroke:#ff0000;stroke-width:20;stroke-miterlimit:4;stroke-opacity:1;stroke-dasharray:none"
             sodipodi:type="arc" />
          <path
             id="path3027"
             d="m -695,-256.21875 c -33.67753,0 -64.02273,14.29857 -85.28125,37.15625 2.68588,-0.65027 5.37689,-1.23241 8.03125,-1.71875 8.52858,-1.62746 16.94784,-2.43735 25.28125,-2.4375 14.84365,1.5e-4 26.53375,3.21108 35.0625,9.65625 8.52852,6.38034 12.78112,15.11992 12.78125,26.1875 -1.3e-4,9.50531 -2.60429,18.15634 -7.8125,25.96875 -5.20845,7.81258 -16.66677,18.37507 -34.375,31.65625 l -36.40625,27.34375 63.375,0 -5.375,27.625 -71.875,0 c 20.91492,31.022399 56.36498,51.4375 96.59375,51.4375 40.22877,0 75.67883,-20.415101 96.59375,-51.4375 l -81.09375,0 5.1875,-25.96875 33.21875,0 18.25,-94.25 -35.4375,7.03125 4.96875,-25.59375 35.25,-7.03125 6.875,0 c -21.17632,-21.96004 -50.89614,-35.625 -83.8125,-35.625 z m -63.09375,58.6875 c -6.18496,1.2e-4 -13.10162,1.24491 -20.71875,3.71875 -7.17603,2.26944 -15.21562,5.73676 -24.125,10.375 -5.46008,13.48537 -8.5,28.21286 -8.5,43.65625 0,9.66839 1.21634,19.04917 3.4375,28.03125 l 49.90625,-37.625 c 6.77076,-5.20825 11.92179,-10.50512 15.4375,-15.84375 3.58064,-5.33845 5.34366,-10.51813 5.34375,-15.53125 -9e-5,-5.33843 -1.823,-9.4452 -5.46875,-12.375 -3.64591,-2.92957 -8.73705,-4.40613 -15.3125,-4.40625 z m 169.375,10.125 -16.75,86.65625 20.1875,0 c 4.34167,-12.20281 6.71875,-25.3385 6.71875,-39.03125 0,-16.97078 -3.62883,-33.0848 -10.15625,-47.625 z"
             style="fill:#ff0000;fill-opacity:1;stroke:none"
             inkscape:connector-curvature="0" />
        </g>
        <text
           xml:space="preserve"
           style="font-size:142.01504517px;font-style:normal;font-weight:normal;line-height:125%;letter-spacing:0px;word-spacing:0px;fill:#000000;fill-opacity:1;stroke:none;font-family:Sans"
           x="-703.65417"
           y="-44.780678"
           id="text3804"
           sodipodi:linespacing="125%"><tspan
             sodipodi:role="line"
             id="tspan3806"
             x="-703.65417"
             y="-44.780678"
             style="font-style:italic;font-weight:bold;-inkscape-font-specification:Sans Bold Italic">2</tspan></text>
      </g>
      <rect
         y="-129.16107"
         x="-732.95178"
         height="320.18933"
         width="320.18933"
         id="rect3815"
         style="fill:none;stroke:none;stroke-width:14.09638499999999972;stroke-miterlimit:4;stroke-opacity:1;stroke-dasharray:none" />
    </g>
  </g>
</svg>
